<svg xmlns="http://www.w3.org/2000/svg">
<!--startOfGrid="x:0.0;y:0.0;xLenght:400.0;yLenght:400.0;numberXSeparations:100;numberYSeparations:100;color:rgb(0,0,255);strokeWidth:1"-->
<line x1="0.0" y1="4.0" x2="400.0" y2="4.0"  style="stroke:rgb(0,0,255);stroke-width:1.0" />
<line x1="0.0" y1="8.0" x2="400.0" y2="8.0"  style="stroke:rgb(0,0,255);stroke-width:1.0" />
<line x1="0.0" y1="12.0" x2="400.0" y2="12.0"  style="stroke:rgb(0,0,255);stroke-width:1.0" />
<line x1="0.0" y1="16.0" x2="400.0" y2="16.0"  style="stroke:rgb(0,0,255);stroke-width:1.0" />
<line x1="0.0" y1="20.0" x2="400.0" y2="20.0"  style="stroke:rgb(0,0,255);stroke-width:1.0" />
<line x1="0.0" y1="24.0" x2="400.0" y2="24.0"  style="stroke:rgb(0,0,255);stroke-width:1.0" />
<line x1="0.0" y1="28.000000000000004" x2="400.0" y2="28.000000000000004"  style="stroke:rgb(0,0,255);stroke-width:1.0" />
<line x1="0.0" y1="32.0" x2="400.0" y2="32.0"  style="stroke:rgb(0,0,255);stroke-width:1.0" />
<line x1="0.0" y1="36.0" x2="400.0" y2="36.0"  style="stroke:rgb(0,0,255);stroke-width:1.0" />
<line x1="0.0" y1="40.0" x2="400.0" y2="40.0"  style="stroke:rgb(0,0,255);stroke-width:1.0" />
<line x1="0.0" y1="44.0" x2="400.0" y2="44.0"  style="stroke:rgb(0,0,255);stroke-width:1.0" />
<line x1="0.0" y1="48.0" x2="400.0" y2="48.0"  style="stroke:rgb(0,0,255);stroke-width:1.0" />
<line x1="0.0" y1="52.0" x2="400.0" y2="52.0"  style="stroke:rgb(0,0,255);stroke-width:1.0" />
<line x1="0.0" y1="56.00000000000001" x2="400.0" y2="56.00000000000001"  style="stroke:rgb(0,0,255);stroke-width:1.0" />
<line x1="0.0" y1="60.0" x2="400.0" y2="60.0"  style="stroke:rgb(0,0,255);stroke-width:1.0" />
<line x1="0.0" y1="64.0" x2="400.0" y2="64.0"  style="stroke:rgb(0,0,255);stroke-width:1.0" />
<line x1="0.0" y1="68.0" x2="400.0" y2="68.0"  style="stroke:rgb(0,0,255);stroke-width:1.0" />
<line x1="0.0" y1="72.0" x2="400.0" y2="72.0"  style="stroke:rgb(0,0,255);stroke-width:1.0" />
<line x1="0.0" y1="76.0" x2="400.0" y2="76.0"  style="stroke:rgb(0,0,255);stroke-width:1.0" />
<line x1="0.0" y1="80.0" x2="400.0" y2="80.0"  style="stroke:rgb(0,0,255);stroke-width:1.0" />
<line x1="0.0" y1="84.0" x2="400.0" y2="84.0"  style="stroke:rgb(0,0,255);stroke-width:1.0" />
<line x1="0.0" y1="88.0" x2="400.0" y2="88.0"  style="stroke:rgb(0,0,255);stroke-width:1.0" />
<line x1="0.0" y1="92.0" x2="400.0" y2="92.0"  style="stroke:rgb(0,0,255);stroke-width:1.0" />
<line x1="0.0" y1="96.0" x2="400.0" y2="96.0"  style="stroke:rgb(0,0,255);stroke-width:1.0" />
<line x1="0.0" y1="100.0" x2="400.0" y2="100.0"  style="stroke:rgb(0,0,255);stroke-width:1.0" />
<line x1="0.0" y1="104.0" x2="400.0" y2="104.0"  style="stroke:rgb(0,0,255);stroke-width:1.0" />
<line x1="0.0" y1="108.0" x2="400.0" y2="108.0"  style="stroke:rgb(0,0,255);stroke-width:1.0" />
<line x1="0.0" y1="112.00000000000001" x2="400.0" y2="112.00000000000001"  style="stroke:rgb(0,0,255);stroke-width:1.0" />
<line x1="0.0" y1="115.99999999999999" x2="400.0" y2="115.99999999999999"  style="stroke:rgb(0,0,255);stroke-width:1.0" />
<line x1="0.0" y1="120.0" x2="400.0" y2="120.0"  style="stroke:rgb(0,0,255);stroke-width:1.0" />
<line x1="0.0" y1="124.0" x2="400.0" y2="124.0"  style="stroke:rgb(0,0,255);stroke-width:1.0" />
<line x1="0.0" y1="128.0" x2="400.0" y2="128.0"  style="stroke:rgb(0,0,255);stroke-width:1.0" />
<line x1="0.0" y1="132.0" x2="400.0" y2="132.0"  style="stroke:rgb(0,0,255);stroke-width:1.0" />
<line x1="0.0" y1="136.0" x2="400.0" y2="136.0"  style="stroke:rgb(0,0,255);stroke-width:1.0" />
<line x1="0.0" y1="140.0" x2="400.0" y2="140.0"  style="stroke:rgb(0,0,255);stroke-width:1.0" />
<line x1="0.0" y1="144.0" x2="400.0" y2="144.0"  style="stroke:rgb(0,0,255);stroke-width:1.0" />
<line x1="0.0" y1="148.0" x2="400.0" y2="148.0"  style="stroke:rgb(0,0,255);stroke-width:1.0" />
<line x1="0.0" y1="152.0" x2="400.0" y2="152.0"  style="stroke:rgb(0,0,255);stroke-width:1.0" />
<line x1="0.0" y1="156.0" x2="400.0" y2="156.0"  style="stroke:rgb(0,0,255);stroke-width:1.0" />
<line x1="0.0" y1="160.0" x2="400.0" y2="160.0"  style="stroke:rgb(0,0,255);stroke-width:1.0" />
<line x1="0.0" y1="164.0" x2="400.0" y2="164.0"  style="stroke:rgb(0,0,255);stroke-width:1.0" />
<line x1="0.0" y1="168.0" x2="400.0" y2="168.0"  style="stroke:rgb(0,0,255);stroke-width:1.0" />
<line x1="0.0" y1="172.0" x2="400.0" y2="172.0"  style="stroke:rgb(0,0,255);stroke-width:1.0" />
<line x1="0.0" y1="176.0" x2="400.0" y2="176.0"  style="stroke:rgb(0,0,255);stroke-width:1.0" />
<line x1="0.0" y1="180.0" x2="400.0" y2="180.0"  style="stroke:rgb(0,0,255);stroke-width:1.0" />
<line x1="0.0" y1="184.0" x2="400.0" y2="184.0"  style="stroke:rgb(0,0,255);stroke-width:1.0" />
<line x1="0.0" y1="188.0" x2="400.0" y2="188.0"  style="stroke:rgb(0,0,255);stroke-width:1.0" />
<line x1="0.0" y1="192.0" x2="400.0" y2="192.0"  style="stroke:rgb(0,0,255);stroke-width:1.0" />
<line x1="0.0" y1="196.0" x2="400.0" y2="196.0"  style="stroke:rgb(0,0,255);stroke-width:1.0" />
<line x1="0.0" y1="200.0" x2="400.0" y2="200.0"  style="stroke:rgb(0,0,255);stroke-width:1.0" />
<line x1="0.0" y1="204.0" x2="400.0" y2="204.0"  style="stroke:rgb(0,0,255);stroke-width:1.0" />
<line x1="0.0" y1="208.0" x2="400.0" y2="208.0"  style="stroke:rgb(0,0,255);stroke-width:1.0" />
<line x1="0.0" y1="212.0" x2="400.0" y2="212.0"  style="stroke:rgb(0,0,255);stroke-width:1.0" />
<line x1="0.0" y1="216.0" x2="400.0" y2="216.0"  style="stroke:rgb(0,0,255);stroke-width:1.0" />
<line x1="0.0" y1="220.00000000000003" x2="400.0" y2="220.00000000000003"  style="stroke:rgb(0,0,255);stroke-width:1.0" />
<line x1="0.0" y1="224.00000000000003" x2="400.0" y2="224.00000000000003"  style="stroke:rgb(0,0,255);stroke-width:1.0" />
<line x1="0.0" y1="227.99999999999997" x2="400.0" y2="227.99999999999997"  style="stroke:rgb(0,0,255);stroke-width:1.0" />
<line x1="0.0" y1="231.99999999999997" x2="400.0" y2="231.99999999999997"  style="stroke:rgb(0,0,255);stroke-width:1.0" />
<line x1="0.0" y1="236.0" x2="400.0" y2="236.0"  style="stroke:rgb(0,0,255);stroke-width:1.0" />
<line x1="0.0" y1="240.0" x2="400.0" y2="240.0"  style="stroke:rgb(0,0,255);stroke-width:1.0" />
<line x1="0.0" y1="244.0" x2="400.0" y2="244.0"  style="stroke:rgb(0,0,255);stroke-width:1.0" />
<line x1="0.0" y1="248.0" x2="400.0" y2="248.0"  style="stroke:rgb(0,0,255);stroke-width:1.0" />
<line x1="0.0" y1="252.0" x2="400.0" y2="252.0"  style="stroke:rgb(0,0,255);stroke-width:1.0" />
<line x1="0.0" y1="256.0" x2="400.0" y2="256.0"  style="stroke:rgb(0,0,255);stroke-width:1.0" />
<line x1="0.0" y1="260.0" x2="400.0" y2="260.0"  style="stroke:rgb(0,0,255);stroke-width:1.0" />
<line x1="0.0" y1="264.0" x2="400.0" y2="264.0"  style="stroke:rgb(0,0,255);stroke-width:1.0" />
<line x1="0.0" y1="268.0" x2="400.0" y2="268.0"  style="stroke:rgb(0,0,255);stroke-width:1.0" />
<line x1="0.0" y1="272.0" x2="400.0" y2="272.0"  style="stroke:rgb(0,0,255);stroke-width:1.0" />
<line x1="0.0" y1="276.0" x2="400.0" y2="276.0"  style="stroke:rgb(0,0,255);stroke-width:1.0" />
<line x1="0.0" y1="280.0" x2="400.0" y2="280.0"  style="stroke:rgb(0,0,255);stroke-width:1.0" />
<line x1="0.0" y1="284.0" x2="400.0" y2="284.0"  style="stroke:rgb(0,0,255);stroke-width:1.0" />
<line x1="0.0" y1="288.0" x2="400.0" y2="288.0"  style="stroke:rgb(0,0,255);stroke-width:1.0" />
<line x1="0.0" y1="292.0" x2="400.0" y2="292.0"  style="stroke:rgb(0,0,255);stroke-width:1.0" />
<line x1="0.0" y1="296.0" x2="400.0" y2="296.0"  style="stroke:rgb(0,0,255);stroke-width:1.0" />
<line x1="0.0" y1="300.0" x2="400.0" y2="300.0"  style="stroke:rgb(0,0,255);stroke-width:1.0" />
<line x1="0.0" y1="304.0" x2="400.0" y2="304.0"  style="stroke:rgb(0,0,255);stroke-width:1.0" />
<line x1="0.0" y1="308.0" x2="400.0" y2="308.0"  style="stroke:rgb(0,0,255);stroke-width:1.0" />
<line x1="0.0" y1="312.0" x2="400.0" y2="312.0"  style="stroke:rgb(0,0,255);stroke-width:1.0" />
<line x1="0.0" y1="316.0" x2="400.0" y2="316.0"  style="stroke:rgb(0,0,255);stroke-width:1.0" />
<line x1="0.0" y1="320.0" x2="400.0" y2="320.0"  style="stroke:rgb(0,0,255);stroke-width:1.0" />
<line x1="0.0" y1="324.0" x2="400.0" y2="324.0"  style="stroke:rgb(0,0,255);stroke-width:1.0" />
<line x1="0.0" y1="328.0" x2="400.0" y2="328.0"  style="stroke:rgb(0,0,255);stroke-width:1.0" />
<line x1="0.0" y1="332.0" x2="400.0" y2="332.0"  style="stroke:rgb(0,0,255);stroke-width:1.0" />
<line x1="0.0" y1="336.0" x2="400.0" y2="336.0"  style="stroke:rgb(0,0,255);stroke-width:1.0" />
<line x1="0.0" y1="340.0" x2="400.0" y2="340.0"  style="stroke:rgb(0,0,255);stroke-width:1.0" />
<line x1="0.0" y1="344.0" x2="400.0" y2="344.0"  style="stroke:rgb(0,0,255);stroke-width:1.0" />
<line x1="0.0" y1="348.0" x2="400.0" y2="348.0"  style="stroke:rgb(0,0,255);stroke-width:1.0" />
<line x1="0.0" y1="352.0" x2="400.0" y2="352.0"  style="stroke:rgb(0,0,255);stroke-width:1.0" />
<line x1="0.0" y1="356.0" x2="400.0" y2="356.0"  style="stroke:rgb(0,0,255);stroke-width:1.0" />
<line x1="0.0" y1="360.0" x2="400.0" y2="360.0"  style="stroke:rgb(0,0,255);stroke-width:1.0" />
<line x1="0.0" y1="364.0" x2="400.0" y2="364.0"  style="stroke:rgb(0,0,255);stroke-width:1.0" />
<line x1="0.0" y1="368.0" x2="400.0" y2="368.0"  style="stroke:rgb(0,0,255);stroke-width:1.0" />
<line x1="0.0" y1="372.0" x2="400.0" y2="372.0"  style="stroke:rgb(0,0,255);stroke-width:1.0" />
<line x1="0.0" y1="376.0" x2="400.0" y2="376.0"  style="stroke:rgb(0,0,255);stroke-width:1.0" />
<line x1="0.0" y1="380.0" x2="400.0" y2="380.0"  style="stroke:rgb(0,0,255);stroke-width:1.0" />
<line x1="0.0" y1="384.0" x2="400.0" y2="384.0"  style="stroke:rgb(0,0,255);stroke-width:1.0" />
<line x1="0.0" y1="388.0" x2="400.0" y2="388.0"  style="stroke:rgb(0,0,255);stroke-width:1.0" />
<line x1="0.0" y1="392.0" x2="400.0" y2="392.0"  style="stroke:rgb(0,0,255);stroke-width:1.0" />
<line x1="0.0" y1="396.0" x2="400.0" y2="396.0"  style="stroke:rgb(0,0,255);stroke-width:1.0" />
<line x1="4.0" y1="0.0" x2="4.0" y2="400.0"  style="stroke:rgb(0,0,255);stroke-width:1.0" />
<line x1="8.0" y1="0.0" x2="8.0" y2="400.0"  style="stroke:rgb(0,0,255);stroke-width:1.0" />
<line x1="12.0" y1="0.0" x2="12.0" y2="400.0"  style="stroke:rgb(0,0,255);stroke-width:1.0" />
<line x1="16.0" y1="0.0" x2="16.0" y2="400.0"  style="stroke:rgb(0,0,255);stroke-width:1.0" />
<line x1="20.0" y1="0.0" x2="20.0" y2="400.0"  style="stroke:rgb(0,0,255);stroke-width:1.0" />
<line x1="24.0" y1="0.0" x2="24.0" y2="400.0"  style="stroke:rgb(0,0,255);stroke-width:1.0" />
<line x1="28.000000000000004" y1="0.0" x2="28.000000000000004" y2="400.0"  style="stroke:rgb(0,0,255);stroke-width:1.0" />
<line x1="32.0" y1="0.0" x2="32.0" y2="400.0"  style="stroke:rgb(0,0,255);stroke-width:1.0" />
<line x1="36.0" y1="0.0" x2="36.0" y2="400.0"  style="stroke:rgb(0,0,255);stroke-width:1.0" />
<line x1="40.0" y1="0.0" x2="40.0" y2="400.0"  style="stroke:rgb(0,0,255);stroke-width:1.0" />
<line x1="44.0" y1="0.0" x2="44.0" y2="400.0"  style="stroke:rgb(0,0,255);stroke-width:1.0" />
<line x1="48.0" y1="0.0" x2="48.0" y2="400.0"  style="stroke:rgb(0,0,255);stroke-width:1.0" />
<line x1="52.0" y1="0.0" x2="52.0" y2="400.0"  style="stroke:rgb(0,0,255);stroke-width:1.0" />
<line x1="56.00000000000001" y1="0.0" x2="56.00000000000001" y2="400.0"  style="stroke:rgb(0,0,255);stroke-width:1.0" />
<line x1="60.0" y1="0.0" x2="60.0" y2="400.0"  style="stroke:rgb(0,0,255);stroke-width:1.0" />
<line x1="64.0" y1="0.0" x2="64.0" y2="400.0"  style="stroke:rgb(0,0,255);stroke-width:1.0" />
<line x1="68.0" y1="0.0" x2="68.0" y2="400.0"  style="stroke:rgb(0,0,255);stroke-width:1.0" />
<line x1="72.0" y1="0.0" x2="72.0" y2="400.0"  style="stroke:rgb(0,0,255);stroke-width:1.0" />
<line x1="76.0" y1="0.0" x2="76.0" y2="400.0"  style="stroke:rgb(0,0,255);stroke-width:1.0" />
<line x1="80.0" y1="0.0" x2="80.0" y2="400.0"  style="stroke:rgb(0,0,255);stroke-width:1.0" />
<line x1="84.0" y1="0.0" x2="84.0" y2="400.0"  style="stroke:rgb(0,0,255);stroke-width:1.0" />
<line x1="88.0" y1="0.0" x2="88.0" y2="400.0"  style="stroke:rgb(0,0,255);stroke-width:1.0" />
<line x1="92.0" y1="0.0" x2="92.0" y2="400.0"  style="stroke:rgb(0,0,255);stroke-width:1.0" />
<line x1="96.0" y1="0.0" x2="96.0" y2="400.0"  style="stroke:rgb(0,0,255);stroke-width:1.0" />
<line x1="100.0" y1="0.0" x2="100.0" y2="400.0"  style="stroke:rgb(0,0,255);stroke-width:1.0" />
<line x1="104.0" y1="0.0" x2="104.0" y2="400.0"  style="stroke:rgb(0,0,255);stroke-width:1.0" />
<line x1="108.0" y1="0.0" x2="108.0" y2="400.0"  style="stroke:rgb(0,0,255);stroke-width:1.0" />
<line x1="112.00000000000001" y1="0.0" x2="112.00000000000001" y2="400.0"  style="stroke:rgb(0,0,255);stroke-width:1.0" />
<line x1="115.99999999999999" y1="0.0" x2="115.99999999999999" y2="400.0"  style="stroke:rgb(0,0,255);stroke-width:1.0" />
<line x1="120.0" y1="0.0" x2="120.0" y2="400.0"  style="stroke:rgb(0,0,255);stroke-width:1.0" />
<line x1="124.0" y1="0.0" x2="124.0" y2="400.0"  style="stroke:rgb(0,0,255);stroke-width:1.0" />
<line x1="128.0" y1="0.0" x2="128.0" y2="400.0"  style="stroke:rgb(0,0,255);stroke-width:1.0" />
<line x1="132.0" y1="0.0" x2="132.0" y2="400.0"  style="stroke:rgb(0,0,255);stroke-width:1.0" />
<line x1="136.0" y1="0.0" x2="136.0" y2="400.0"  style="stroke:rgb(0,0,255);stroke-width:1.0" />
<line x1="140.0" y1="0.0" x2="140.0" y2="400.0"  style="stroke:rgb(0,0,255);stroke-width:1.0" />
<line x1="144.0" y1="0.0" x2="144.0" y2="400.0"  style="stroke:rgb(0,0,255);stroke-width:1.0" />
<line x1="148.0" y1="0.0" x2="148.0" y2="400.0"  style="stroke:rgb(0,0,255);stroke-width:1.0" />
<line x1="152.0" y1="0.0" x2="152.0" y2="400.0"  style="stroke:rgb(0,0,255);stroke-width:1.0" />
<line x1="156.0" y1="0.0" x2="156.0" y2="400.0"  style="stroke:rgb(0,0,255);stroke-width:1.0" />
<line x1="160.0" y1="0.0" x2="160.0" y2="400.0"  style="stroke:rgb(0,0,255);stroke-width:1.0" />
<line x1="164.0" y1="0.0" x2="164.0" y2="400.0"  style="stroke:rgb(0,0,255);stroke-width:1.0" />
<line x1="168.0" y1="0.0" x2="168.0" y2="400.0"  style="stroke:rgb(0,0,255);stroke-width:1.0" />
<line x1="172.0" y1="0.0" x2="172.0" y2="400.0"  style="stroke:rgb(0,0,255);stroke-width:1.0" />
<line x1="176.0" y1="0.0" x2="176.0" y2="400.0"  style="stroke:rgb(0,0,255);stroke-width:1.0" />
<line x1="180.0" y1="0.0" x2="180.0" y2="400.0"  style="stroke:rgb(0,0,255);stroke-width:1.0" />
<line x1="184.0" y1="0.0" x2="184.0" y2="400.0"  style="stroke:rgb(0,0,255);stroke-width:1.0" />
<line x1="188.0" y1="0.0" x2="188.0" y2="400.0"  style="stroke:rgb(0,0,255);stroke-width:1.0" />
<line x1="192.0" y1="0.0" x2="192.0" y2="400.0"  style="stroke:rgb(0,0,255);stroke-width:1.0" />
<line x1="196.0" y1="0.0" x2="196.0" y2="400.0"  style="stroke:rgb(0,0,255);stroke-width:1.0" />
<line x1="200.0" y1="0.0" x2="200.0" y2="400.0"  style="stroke:rgb(0,0,255);stroke-width:1.0" />
<line x1="204.0" y1="0.0" x2="204.0" y2="400.0"  style="stroke:rgb(0,0,255);stroke-width:1.0" />
<line x1="208.0" y1="0.0" x2="208.0" y2="400.0"  style="stroke:rgb(0,0,255);stroke-width:1.0" />
<line x1="212.0" y1="0.0" x2="212.0" y2="400.0"  style="stroke:rgb(0,0,255);stroke-width:1.0" />
<line x1="216.0" y1="0.0" x2="216.0" y2="400.0"  style="stroke:rgb(0,0,255);stroke-width:1.0" />
<line x1="220.00000000000003" y1="0.0" x2="220.00000000000003" y2="400.0"  style="stroke:rgb(0,0,255);stroke-width:1.0" />
<line x1="224.00000000000003" y1="0.0" x2="224.00000000000003" y2="400.0"  style="stroke:rgb(0,0,255);stroke-width:1.0" />
<line x1="227.99999999999997" y1="0.0" x2="227.99999999999997" y2="400.0"  style="stroke:rgb(0,0,255);stroke-width:1.0" />
<line x1="231.99999999999997" y1="0.0" x2="231.99999999999997" y2="400.0"  style="stroke:rgb(0,0,255);stroke-width:1.0" />
<line x1="236.0" y1="0.0" x2="236.0" y2="400.0"  style="stroke:rgb(0,0,255);stroke-width:1.0" />
<line x1="240.0" y1="0.0" x2="240.0" y2="400.0"  style="stroke:rgb(0,0,255);stroke-width:1.0" />
<line x1="244.0" y1="0.0" x2="244.0" y2="400.0"  style="stroke:rgb(0,0,255);stroke-width:1.0" />
<line x1="248.0" y1="0.0" x2="248.0" y2="400.0"  style="stroke:rgb(0,0,255);stroke-width:1.0" />
<line x1="252.0" y1="0.0" x2="252.0" y2="400.0"  style="stroke:rgb(0,0,255);stroke-width:1.0" />
<line x1="256.0" y1="0.0" x2="256.0" y2="400.0"  style="stroke:rgb(0,0,255);stroke-width:1.0" />
<line x1="260.0" y1="0.0" x2="260.0" y2="400.0"  style="stroke:rgb(0,0,255);stroke-width:1.0" />
<line x1="264.0" y1="0.0" x2="264.0" y2="400.0"  style="stroke:rgb(0,0,255);stroke-width:1.0" />
<line x1="268.0" y1="0.0" x2="268.0" y2="400.0"  style="stroke:rgb(0,0,255);stroke-width:1.0" />
<line x1="272.0" y1="0.0" x2="272.0" y2="400.0"  style="stroke:rgb(0,0,255);stroke-width:1.0" />
<line x1="276.0" y1="0.0" x2="276.0" y2="400.0"  style="stroke:rgb(0,0,255);stroke-width:1.0" />
<line x1="280.0" y1="0.0" x2="280.0" y2="400.0"  style="stroke:rgb(0,0,255);stroke-width:1.0" />
<line x1="284.0" y1="0.0" x2="284.0" y2="400.0"  style="stroke:rgb(0,0,255);stroke-width:1.0" />
<line x1="288.0" y1="0.0" x2="288.0" y2="400.0"  style="stroke:rgb(0,0,255);stroke-width:1.0" />
<line x1="292.0" y1="0.0" x2="292.0" y2="400.0"  style="stroke:rgb(0,0,255);stroke-width:1.0" />
<line x1="296.0" y1="0.0" x2="296.0" y2="400.0"  style="stroke:rgb(0,0,255);stroke-width:1.0" />
<line x1="300.0" y1="0.0" x2="300.0" y2="400.0"  style="stroke:rgb(0,0,255);stroke-width:1.0" />
<line x1="304.0" y1="0.0" x2="304.0" y2="400.0"  style="stroke:rgb(0,0,255);stroke-width:1.0" />
<line x1="308.0" y1="0.0" x2="308.0" y2="400.0"  style="stroke:rgb(0,0,255);stroke-width:1.0" />
<line x1="312.0" y1="0.0" x2="312.0" y2="400.0"  style="stroke:rgb(0,0,255);stroke-width:1.0" />
<line x1="316.0" y1="0.0" x2="316.0" y2="400.0"  style="stroke:rgb(0,0,255);stroke-width:1.0" />
<line x1="320.0" y1="0.0" x2="320.0" y2="400.0"  style="stroke:rgb(0,0,255);stroke-width:1.0" />
<line x1="324.0" y1="0.0" x2="324.0" y2="400.0"  style="stroke:rgb(0,0,255);stroke-width:1.0" />
<line x1="328.0" y1="0.0" x2="328.0" y2="400.0"  style="stroke:rgb(0,0,255);stroke-width:1.0" />
<line x1="332.0" y1="0.0" x2="332.0" y2="400.0"  style="stroke:rgb(0,0,255);stroke-width:1.0" />
<line x1="336.0" y1="0.0" x2="336.0" y2="400.0"  style="stroke:rgb(0,0,255);stroke-width:1.0" />
<line x1="340.0" y1="0.0" x2="340.0" y2="400.0"  style="stroke:rgb(0,0,255);stroke-width:1.0" />
<line x1="344.0" y1="0.0" x2="344.0" y2="400.0"  style="stroke:rgb(0,0,255);stroke-width:1.0" />
<line x1="348.0" y1="0.0" x2="348.0" y2="400.0"  style="stroke:rgb(0,0,255);stroke-width:1.0" />
<line x1="352.0" y1="0.0" x2="352.0" y2="400.0"  style="stroke:rgb(0,0,255);stroke-width:1.0" />
<line x1="356.0" y1="0.0" x2="356.0" y2="400.0"  style="stroke:rgb(0,0,255);stroke-width:1.0" />
<line x1="360.0" y1="0.0" x2="360.0" y2="400.0"  style="stroke:rgb(0,0,255);stroke-width:1.0" />
<line x1="364.0" y1="0.0" x2="364.0" y2="400.0"  style="stroke:rgb(0,0,255);stroke-width:1.0" />
<line x1="368.0" y1="0.0" x2="368.0" y2="400.0"  style="stroke:rgb(0,0,255);stroke-width:1.0" />
<line x1="372.0" y1="0.0" x2="372.0" y2="400.0"  style="stroke:rgb(0,0,255);stroke-width:1.0" />
<line x1="376.0" y1="0.0" x2="376.0" y2="400.0"  style="stroke:rgb(0,0,255);stroke-width:1.0" />
<line x1="380.0" y1="0.0" x2="380.0" y2="400.0"  style="stroke:rgb(0,0,255);stroke-width:1.0" />
<line x1="384.0" y1="0.0" x2="384.0" y2="400.0"  style="stroke:rgb(0,0,255);stroke-width:1.0" />
<line x1="388.0" y1="0.0" x2="388.0" y2="400.0"  style="stroke:rgb(0,0,255);stroke-width:1.0" />
<line x1="392.0" y1="0.0" x2="392.0" y2="400.0"  style="stroke:rgb(0,0,255);stroke-width:1.0" />
<line x1="396.0" y1="0.0" x2="396.0" y2="400.0"  style="stroke:rgb(0,0,255);stroke-width:1.0" />
<line x1="0.0" y1="0.0" x2="400.0" y2="0.0"  style="stroke:rgb(0,0,255);stroke-width:1.0" />
<line x1="0.0" y1="400.0" x2="400.0" y2="400.0"  style="stroke:rgb(0,0,255);stroke-width:1.0" />
<line x1="0.0" y1="0.0" x2="0.0" y2="400.0"  style="stroke:rgb(0,0,255);stroke-width:1.0" />
<line x1="400.0" y1="0.0" x2="400.0" y2="400.0"  style="stroke:rgb(0,0,255);stroke-width:1.0" />
<!--endOfGrid-->
<!--startOfGrid="x:0.0;y:0.0;xLenght:400.0;yLenght:400.0;numberXSeparations:10;numberYSeparations:10;color:rgb(255,0,0);strokeWidth:1"-->
<line x1="0.0" y1="40.0" x2="400.0" y2="40.0"  style="stroke:rgb(255,0,0);stroke-width:1.0" />
<line x1="0.0" y1="80.0" x2="400.0" y2="80.0"  style="stroke:rgb(255,0,0);stroke-width:1.0" />
<line x1="0.0" y1="120.0" x2="400.0" y2="120.0"  style="stroke:rgb(255,0,0);stroke-width:1.0" />
<line x1="0.0" y1="160.0" x2="400.0" y2="160.0"  style="stroke:rgb(255,0,0);stroke-width:1.0" />
<line x1="0.0" y1="200.0" x2="400.0" y2="200.0"  style="stroke:rgb(255,0,0);stroke-width:1.0" />
<line x1="0.0" y1="240.0" x2="400.0" y2="240.0"  style="stroke:rgb(255,0,0);stroke-width:1.0" />
<line x1="0.0" y1="280.0" x2="400.0" y2="280.0"  style="stroke:rgb(255,0,0);stroke-width:1.0" />
<line x1="0.0" y1="320.0" x2="400.0" y2="320.0"  style="stroke:rgb(255,0,0);stroke-width:1.0" />
<line x1="0.0" y1="360.0" x2="400.0" y2="360.0"  style="stroke:rgb(255,0,0);stroke-width:1.0" />
<line x1="40.0" y1="0.0" x2="40.0" y2="400.0"  style="stroke:rgb(255,0,0);stroke-width:1.0" />
<line x1="80.0" y1="0.0" x2="80.0" y2="400.0"  style="stroke:rgb(255,0,0);stroke-width:1.0" />
<line x1="120.0" y1="0.0" x2="120.0" y2="400.0"  style="stroke:rgb(255,0,0);stroke-width:1.0" />
<line x1="160.0" y1="0.0" x2="160.0" y2="400.0"  style="stroke:rgb(255,0,0);stroke-width:1.0" />
<line x1="200.0" y1="0.0" x2="200.0" y2="400.0"  style="stroke:rgb(255,0,0);stroke-width:1.0" />
<line x1="240.0" y1="0.0" x2="240.0" y2="400.0"  style="stroke:rgb(255,0,0);stroke-width:1.0" />
<line x1="280.0" y1="0.0" x2="280.0" y2="400.0"  style="stroke:rgb(255,0,0);stroke-width:1.0" />
<line x1="320.0" y1="0.0" x2="320.0" y2="400.0"  style="stroke:rgb(255,0,0);stroke-width:1.0" />
<line x1="360.0" y1="0.0" x2="360.0" y2="400.0"  style="stroke:rgb(255,0,0);stroke-width:1.0" />
<line x1="0.0" y1="0.0" x2="400.0" y2="0.0"  style="stroke:rgb(255,0,0);stroke-width:1.0" />
<line x1="0.0" y1="400.0" x2="400.0" y2="400.0"  style="stroke:rgb(255,0,0);stroke-width:1.0" />
<line x1="0.0" y1="0.0" x2="0.0" y2="400.0"  style="stroke:rgb(255,0,0);stroke-width:1.0" />
<line x1="400.0" y1="0.0" x2="400.0" y2="400.0"  style="stroke:rgb(255,0,0);stroke-width:1.0" />
<!--endOfGrid-->
</svg>