<svg xmlns="http://www.w3.org/2000/svg">
<g transform="scale(0.9,0.5)">
<!--startOfGrid="x:0.0;y:0.0;xLenght:1000.0;yLenght:1000.0;numberXSeparations:10;numberYSeparations:10;color:rgb(128,128,128);strokeWidth:1"-->
<line x1="0.0" y1="100.0" x2="1000.0" y2="100.0"  style="stroke:rgb(128,128,128);stroke-width:1.0" />
<line x1="0.0" y1="200.0" x2="1000.0" y2="200.0"  style="stroke:rgb(128,128,128);stroke-width:1.0" />
<line x1="0.0" y1="300.0" x2="1000.0" y2="300.0"  style="stroke:rgb(128,128,128);stroke-width:1.0" />
<line x1="0.0" y1="400.0" x2="1000.0" y2="400.0"  style="stroke:rgb(128,128,128);stroke-width:1.0" />
<line x1="0.0" y1="500.0" x2="1000.0" y2="500.0"  style="stroke:rgb(128,128,128);stroke-width:1.0" />
<line x1="0.0" y1="600.0" x2="1000.0" y2="600.0"  style="stroke:rgb(128,128,128);stroke-width:1.0" />
<line x1="0.0" y1="700.0" x2="1000.0" y2="700.0"  style="stroke:rgb(128,128,128);stroke-width:1.0" />
<line x1="0.0" y1="800.0" x2="1000.0" y2="800.0"  style="stroke:rgb(128,128,128);stroke-width:1.0" />
<line x1="0.0" y1="900.0" x2="1000.0" y2="900.0"  style="stroke:rgb(128,128,128);stroke-width:1.0" />
<line x1="100.0" y1="0.0" x2="100.0" y2="1000.0"  style="stroke:rgb(128,128,128);stroke-width:1.0" />
<line x1="200.0" y1="0.0" x2="200.0" y2="1000.0"  style="stroke:rgb(128,128,128);stroke-width:1.0" />
<line x1="300.0" y1="0.0" x2="300.0" y2="1000.0"  style="stroke:rgb(128,128,128);stroke-width:1.0" />
<line x1="400.0" y1="0.0" x2="400.0" y2="1000.0"  style="stroke:rgb(128,128,128);stroke-width:1.0" />
<line x1="500.0" y1="0.0" x2="500.0" y2="1000.0"  style="stroke:rgb(128,128,128);stroke-width:1.0" />
<line x1="600.0" y1="0.0" x2="600.0" y2="1000.0"  style="stroke:rgb(128,128,128);stroke-width:1.0" />
<line x1="700.0" y1="0.0" x2="700.0" y2="1000.0"  style="stroke:rgb(128,128,128);stroke-width:1.0" />
<line x1="800.0" y1="0.0" x2="800.0" y2="1000.0"  style="stroke:rgb(128,128,128);stroke-width:1.0" />
<line x1="900.0" y1="0.0" x2="900.0" y2="1000.0"  style="stroke:rgb(128,128,128);stroke-width:1.0" />
<line x1="0.0" y1="0.0" x2="1000.0" y2="0.0"  style="stroke:rgb(128,128,128);stroke-width:1.0" />
<line x1="0.0" y1="1000.0" x2="1000.0" y2="1000.0"  style="stroke:rgb(128,128,128);stroke-width:1.0" />
<line x1="0.0" y1="0.0" x2="0.0" y2="1000.0"  style="stroke:rgb(128,128,128);stroke-width:1.0" />
<line x1="1000.0" y1="0.0" x2="1000.0" y2="1000.0"  style="stroke:rgb(128,128,128);stroke-width:1.0" />
<!--endOfGrid-->
<line x1="0.0" y1="300.0" x2="1000.0" y2="300.0"  style="stroke:rgb(0,0,0);stroke-width:2.0" />
<line x1="100.0" y1="0.0" x2="100.0" y2="1000.0"  style="stroke:rgb(0,0,0);stroke-width:2.0" />
<line x1="100.0" y1="300.0" x2="300.0" y2="500.0"  style="stroke:rgb(255,0,0);stroke-width:2.0" />
</g>
</svg>