<svg xmlns="http://www.w3.org/2000/svg">
<g transform="scale(1.0,1.0)">
<!--startOfGrid="x:0.0;y:0.0;xLenght:400.0;yLenght:400.0;numberXSeparations:5;numberYSeparations:5;color:rgb(128,128,128);strokeWidth:1"-->
<line x1="0.0" y1="80.0" x2="400.0" y2="80.0"  style="stroke:rgb(128,128,128);stroke-width:1.0" />
<line x1="0.0" y1="160.0" x2="400.0" y2="160.0"  style="stroke:rgb(128,128,128);stroke-width:1.0" />
<line x1="0.0" y1="240.0" x2="400.0" y2="240.0"  style="stroke:rgb(128,128,128);stroke-width:1.0" />
<line x1="0.0" y1="320.0" x2="400.0" y2="320.0"  style="stroke:rgb(128,128,128);stroke-width:1.0" />
<line x1="80.0" y1="0.0" x2="80.0" y2="400.0"  style="stroke:rgb(128,128,128);stroke-width:1.0" />
<line x1="160.0" y1="0.0" x2="160.0" y2="400.0"  style="stroke:rgb(128,128,128);stroke-width:1.0" />
<line x1="240.0" y1="0.0" x2="240.0" y2="400.0"  style="stroke:rgb(128,128,128);stroke-width:1.0" />
<line x1="320.0" y1="0.0" x2="320.0" y2="400.0"  style="stroke:rgb(128,128,128);stroke-width:1.0" />
<line x1="0.0" y1="0.0" x2="400.0" y2="0.0"  style="stroke:rgb(128,128,128);stroke-width:1.0" />
<line x1="0.0" y1="400.0" x2="400.0" y2="400.0"  style="stroke:rgb(128,128,128);stroke-width:1.0" />
<line x1="0.0" y1="0.0" x2="0.0" y2="400.0"  style="stroke:rgb(128,128,128);stroke-width:1.0" />
<line x1="400.0" y1="0.0" x2="400.0" y2="400.0"  style="stroke:rgb(128,128,128);stroke-width:1.0" />
<!--endOfGrid-->
<line x1="160.0" y1="80.0" x2="960.0" y2="80.0"  style="stroke:rgb(0,0,0);stroke-width:2.0" />
<line x1="160.0" y1="80.0" x2="160.0" y2="880.0"  style="stroke:rgb(0,0,0);stroke-width:2.0" />
<line x1="0.0" y1="80.0" x2="800.0" y2="80.0"  style="stroke:rgb(0,0,0);stroke-width:2.0" />
<line x1="160.0" y1="80.0" x2="160.0" y2="880.0"  style="stroke:rgb(0,0,0);stroke-width:2.0" />
<line x1="0.0" y1="80.0" x2="800.0" y2="80.0"  style="stroke:rgb(0,0,0);stroke-width:2.0" />
<line x1="160.0" y1="0.0" x2="160.0" y2="800.0"  style="stroke:rgb(0,0,0);stroke-width:2.0" />
<line x1="160.0" y1="80.0" x2="400.0" y2="320.0"  style="stroke:rgb(255,0,0);stroke-width:1.0" />
<line x1="0.0" y1="80.0" x2="400.0" y2="80.0"  style="stroke:rgb(0,0,0);stroke-width:2.0" />
<line x1="160.0" y1="0.0" x2="160.0" y2="400.0"  style="stroke:rgb(0,0,0);stroke-width:2.0" />
</g>
</svg>