<svg xmlns="http://www.w3.org/2000/svg">
<line x1="10.0" y1="20.0" x2="110.0" y2="20.0"  style="stroke:rgb(255,255,0);stroke-width:2.0" />
<line x1="10.0" y1="220.0" x2="110.0" y2="220.0"  style="stroke:rgb(255,0,0);stroke-width:2.0" />
<line x1="10.0" y1="20.0" x2="10.0" y2="220.0"  style="stroke:rgb(0,255,0);stroke-width:2.0" />
<line x1="110.0" y1="20.0" x2="110.0" y2="220.0"  style="stroke:rgb(0,0,255);stroke-width:2.0" />
<line x1="10.0" y1="20.0" x2="110.0" y2="20.0"  style="stroke:rgb(255,255,0);stroke-width:2.0" />
<line x1="10.0" y1="220.0" x2="110.0" y2="220.0"  style="stroke:rgb(255,0,0);stroke-width:2.0" />
<line x1="10.0" y1="20.0" x2="10.0" y2="220.0"  style="stroke:rgb(0,255,0);stroke-width:2.0" />
<line x1="110.0" y1="20.0" x2="110.0" y2="220.0"  style="stroke:rgb(0,0,255);stroke-width:2.0" />
<line x1="10.0" y1="20.0" x2="110.0" y2="20.0"  style="stroke:rgb(255,255,0);stroke-width:2.0" />
<line x1="10.0" y1="220.0" x2="110.0" y2="220.0"  style="stroke:rgb(255,0,0);stroke-width:2.0" />
<line x1="10.0" y1="20.0" x2="10.0" y2="220.0"  style="stroke:rgb(0,255,0);stroke-width:2.0" />
<line x1="110.0" y1="20.0" x2="110.0" y2="220.0"  style="stroke:rgb(0,0,255);stroke-width:2.0" />
<line x1="10.0" y1="20.0" x2="110.0" y2="20.0"  style="stroke:rgb(255,255,0);stroke-width:2.0" />
<line x1="10.0" y1="220.0" x2="110.0" y2="220.0"  style="stroke:rgb(255,0,0);stroke-width:2.0" />
<line x1="10.0" y1="20.0" x2="10.0" y2="220.0"  style="stroke:rgb(0,255,0);stroke-width:2.0" />
<line x1="110.0" y1="20.0" x2="110.0" y2="220.0"  style="stroke:rgb(0,0,255);stroke-width:2.0" />
<line x1="10.0" y1="20.0" x2="110.0" y2="20.0"  style="stroke:rgb(0,0,0);stroke-width:2.0" />
<line x1="10.0" y1="20.0" x2="110.0" y2="20.0"  style="stroke:rgb(255,255,0);stroke-width:2.0" />
<line x1="10.0" y1="220.0" x2="110.0" y2="220.0"  style="stroke:rgb(255,0,0);stroke-width:2.0" />
<line x1="10.0" y1="20.0" x2="10.0" y2="220.0"  style="stroke:rgb(0,255,0);stroke-width:2.0" />
<line x1="110.0" y1="20.0" x2="110.0" y2="220.0"  style="stroke:rgb(0,0,255);stroke-width:2.0" />
<line x1="10.0" y1="20.0" x2="110.0" y2="20.0"  style="stroke:rgb(0,0,0);stroke-width:2.0" />
<line x1="10.0" y1="20.0" x2="110.0" y2="20.0"  style="stroke:rgb(255,255,0);stroke-width:2.0" />
<line x1="10.0" y1="220.0" x2="110.0" y2="220.0"  style="stroke:rgb(255,0,0);stroke-width:2.0" />
<line x1="10.0" y1="20.0" x2="10.0" y2="220.0"  style="stroke:rgb(0,255,0);stroke-width:2.0" />
<line x1="110.0" y1="20.0" x2="110.0" y2="220.0"  style="stroke:rgb(0,0,255);stroke-width:2.0" />
<line x1="10.0" y1="20.0" x2="110.0" y2="20.0"  style="stroke:rgb(0,0,0);stroke-width:2.0" />
<line x1="10.0" y1="20.0" x2="110.0" y2="20.0"  style="stroke:rgb(255,255,0);stroke-width:2.0" />
<line x1="10.0" y1="220.0" x2="110.0" y2="220.0"  style="stroke:rgb(255,0,0);stroke-width:2.0" />
<line x1="10.0" y1="20.0" x2="10.0" y2="220.0"  style="stroke:rgb(0,255,0);stroke-width:2.0" />
<line x1="110.0" y1="20.0" x2="110.0" y2="220.0"  style="stroke:rgb(0,0,255);stroke-width:2.0" />
<line x1="10.0" y1="20.0" x2="110.0" y2="20.0"  style="stroke:rgb(0,0,0);stroke-width:2.0" />
<line x1="10.0" y1="20.0" x2="110.0" y2="20.0"  style="stroke:rgb(255,255,0);stroke-width:2.0" />
<line x1="10.0" y1="220.0" x2="110.0" y2="220.0"  style="stroke:rgb(255,0,0);stroke-width:2.0" />
<line x1="10.0" y1="20.0" x2="10.0" y2="220.0"  style="stroke:rgb(0,255,0);stroke-width:2.0" />
<line x1="110.0" y1="20.0" x2="110.0" y2="220.0"  style="stroke:rgb(0,0,255);stroke-width:2.0" />
<line x1="10.0" y1="20.0" x2="110.0" y2="20.0"  style="stroke:rgb(0,0,0);stroke-width:2.0" />
<line x1="10.0" y1="20.005" x2="110.0" y2="20.005"  style="stroke:rgb(0,0,0);stroke-width:2.0" />
<line x1="10.0" y1="20.0" x2="110.0" y2="20.0"  style="stroke:rgb(255,255,0);stroke-width:2.0" />
<line x1="10.0" y1="220.0" x2="110.0" y2="220.0"  style="stroke:rgb(255,0,0);stroke-width:2.0" />
<line x1="10.0" y1="20.0" x2="10.0" y2="220.0"  style="stroke:rgb(0,255,0);stroke-width:2.0" />
<line x1="110.0" y1="20.0" x2="110.0" y2="220.0"  style="stroke:rgb(0,0,255);stroke-width:2.0" />
<line x1="10.0" y1="20.0" x2="110.0" y2="20.0"  style="stroke:rgb(0,0,0);stroke-width:2.0" />
<line x1="10.0" y1="20.0" x2="110.0" y2="20.0"  style="stroke:rgb(0,0,0);stroke-width:2.0" />
<line x1="10.0" y1="20.0" x2="110.0" y2="20.0"  style="stroke:rgb(255,255,0);stroke-width:2.0" />
<line x1="10.0" y1="220.0" x2="110.0" y2="220.0"  style="stroke:rgb(255,0,0);stroke-width:2.0" />
<line x1="10.0" y1="20.0" x2="10.0" y2="220.0"  style="stroke:rgb(0,255,0);stroke-width:2.0" />
<line x1="110.0" y1="20.0" x2="110.0" y2="220.0"  style="stroke:rgb(0,0,255);stroke-width:2.0" />
<line x1="10.0" y1="20.0" x2="110.0" y2="20.0"  style="stroke:rgb(0,0,0);stroke-width:2.0" />
<line x1="10.0" y1="20.0" x2="110.0" y2="20.0"  style="stroke:rgb(0,0,0);stroke-width:2.0" />
<line x1="10.0" y1="20.0" x2="110.0" y2="20.0"  style="stroke:rgb(0,0,0);stroke-width:2.0" />
<line x1="10.0" y1="20.0" x2="110.0" y2="20.0"  style="stroke:rgb(255,255,0);stroke-width:2.0" />
<line x1="10.0" y1="220.0" x2="110.0" y2="220.0"  style="stroke:rgb(255,0,0);stroke-width:2.0" />
<line x1="10.0" y1="20.0" x2="10.0" y2="220.0"  style="stroke:rgb(0,255,0);stroke-width:2.0" />
<line x1="110.0" y1="20.0" x2="110.0" y2="220.0"  style="stroke:rgb(0,0,255);stroke-width:2.0" />
<line x1="10.0" y1="20.0" x2="110.0" y2="20.0"  style="stroke:rgb(0,0,0);stroke-width:2.0" />
<line x1="10.0" y1="20.0" x2="110.0" y2="20.0"  style="stroke:rgb(0,0,0);stroke-width:2.0" />
<line x1="10.0" y1="20.0" x2="110.0" y2="20.0"  style="stroke:rgb(255,255,0);stroke-width:2.0" />
<line x1="10.0" y1="220.0" x2="110.0" y2="220.0"  style="stroke:rgb(255,0,0);stroke-width:2.0" />
<line x1="10.0" y1="20.0" x2="10.0" y2="220.0"  style="stroke:rgb(0,255,0);stroke-width:2.0" />
<line x1="110.0" y1="20.0" x2="110.0" y2="220.0"  style="stroke:rgb(0,0,255);stroke-width:2.0" />
<line x1="10.0" y1="20.0" x2="110.0" y2="20.0"  style="stroke:rgb(0,0,0);stroke-width:2.0" />
<line x1="10.0" y1="20.0" x2="110.0" y2="20.0"  style="stroke:rgb(0,0,0);stroke-width:2.0" />
<line x1="10.0" y1="20.0" x2="110.0" y2="20.0"  style="stroke:rgb(255,255,0);stroke-width:2.0" />
<line x1="10.0" y1="220.0" x2="110.0" y2="220.0"  style="stroke:rgb(255,0,0);stroke-width:2.0" />
<line x1="10.0" y1="20.0" x2="10.0" y2="220.0"  style="stroke:rgb(0,255,0);stroke-width:2.0" />
<line x1="110.0" y1="20.0" x2="110.0" y2="220.0"  style="stroke:rgb(0,0,255);stroke-width:2.0" />
</svg>