<svg xmlns="http://www.w3.org/2000/svg">
<g transform="scale(1.0,1.0)">
<!--startOfGrid="x:0.0;y:0.0;xLenght:400.0;yLenght:400.0;numberXSeparations:8;numberYSeparations:8;color:rgb(128,128,128);strokeWidth:1"-->
<line x1="0.0" y1="50.0" x2="400.0" y2="50.0"  style="stroke:rgb(128,128,128);stroke-width:1.0" />
<line x1="0.0" y1="100.0" x2="400.0" y2="100.0"  style="stroke:rgb(128,128,128);stroke-width:1.0" />
<line x1="0.0" y1="150.0" x2="400.0" y2="150.0"  style="stroke:rgb(128,128,128);stroke-width:1.0" />
<line x1="0.0" y1="200.0" x2="400.0" y2="200.0"  style="stroke:rgb(128,128,128);stroke-width:1.0" />
<line x1="0.0" y1="250.0" x2="400.0" y2="250.0"  style="stroke:rgb(128,128,128);stroke-width:1.0" />
<line x1="0.0" y1="300.0" x2="400.0" y2="300.0"  style="stroke:rgb(128,128,128);stroke-width:1.0" />
<line x1="0.0" y1="350.0" x2="400.0" y2="350.0"  style="stroke:rgb(128,128,128);stroke-width:1.0" />
<line x1="50.0" y1="0.0" x2="50.0" y2="400.0"  style="stroke:rgb(128,128,128);stroke-width:1.0" />
<line x1="100.0" y1="0.0" x2="100.0" y2="400.0"  style="stroke:rgb(128,128,128);stroke-width:1.0" />
<line x1="150.0" y1="0.0" x2="150.0" y2="400.0"  style="stroke:rgb(128,128,128);stroke-width:1.0" />
<line x1="200.0" y1="0.0" x2="200.0" y2="400.0"  style="stroke:rgb(128,128,128);stroke-width:1.0" />
<line x1="250.0" y1="0.0" x2="250.0" y2="400.0"  style="stroke:rgb(128,128,128);stroke-width:1.0" />
<line x1="300.0" y1="0.0" x2="300.0" y2="400.0"  style="stroke:rgb(128,128,128);stroke-width:1.0" />
<line x1="350.0" y1="0.0" x2="350.0" y2="400.0"  style="stroke:rgb(128,128,128);stroke-width:1.0" />
<line x1="0.0" y1="0.0" x2="400.0" y2="0.0"  style="stroke:rgb(128,128,128);stroke-width:1.0" />
<line x1="0.0" y1="400.0" x2="400.0" y2="400.0"  style="stroke:rgb(128,128,128);stroke-width:1.0" />
<line x1="0.0" y1="0.0" x2="0.0" y2="400.0"  style="stroke:rgb(128,128,128);stroke-width:1.0" />
<line x1="400.0" y1="0.0" x2="400.0" y2="400.0"  style="stroke:rgb(128,128,128);stroke-width:1.0" />
<!--endOfGrid-->
<line x1="0.0" y1="0.0" x2="400.0" y2="0.0"  style="stroke:rgb(0,0,0);stroke-width:2.0" />
<line x1="0.0" y1="0.0" x2="0.0" y2="400.0"  style="stroke:rgb(0,0,0);stroke-width:2.0" />
<line x1="0.0" y1="0.0" x2="50.0" y2="250.0"  style="stroke:rgb(255,0,0);stroke-width:1.0" />
</g>
</svg>